<?xml version="1.0" encoding="iso-8859-1"?>
<!-- Generator: Adobe Illustrator 19.0.0, SVG Export Plug-In . SVG Version: 6.00 Build 0)  -->
<svg version="1.1" id="Capa_1" xmlns="http://www.w3.org/2000/svg" xmlns:xlink="http://www.w3.org/1999/xlink" x="0px" y="0px"
	 viewBox="0 0 511.984 511.984" style="enable-background:new 0 0 511.984 511.984;" xml:space="preserve">
<rect x="28.002" y="51.92" style="fill:#E6E9ED;" width="455.99" height="264.15"/>
<path style="fill:#FFCE54;" d="M51.999,131.918h175.994h79.998v159.995H51.999V131.918z"/>
<rect x="227.992" y="85.492" style="fill:#656D78;" width="55.999" height="22.461"/>
<g style="opacity:0.1;">
	<rect x="227.992" y="85.492" width="55.999" height="22.461"/>
</g>
<path style="fill:#ED5565;" d="M255.992,355.911c6.641,0,12,5.359,12,11.999c0,6.641-5.359,12-12,12c-6.64,0-11.999-5.359-11.999-12
	C243.993,361.27,249.352,355.911,255.992,355.911z"/>
<g>
	<path style="fill:#CCD1D9;" d="M507.984,372.066v15.844c0,13.516-10.483,23.999-23.998,23.999c-5.68,0-85.037,0-176.073,0
		c-34.077,0-69.764,0-103.841,0c-91.036,0-170.394,0-176.073,0C14.484,411.909,4,401.426,4,387.91v-15.844
		c0,13.203,10.797,24,23.999,24h227.993h227.994C497.188,396.066,507.984,385.269,507.984,372.066z"/>
	<path style="fill:#CCD1D9;" d="M307.913,411.909l15.999,71.998h-135.84l16-71.998C238.149,411.909,273.836,411.909,307.913,411.909
		z"/>
</g>
<g style="opacity:0.5;">
	<polygon style="fill:#FFFFFF;" points="200.525,427.909 188.072,483.907 204.072,483.907 216.525,427.909 	"/>
</g>
<g style="opacity:0.2;">
	<polygon points="311.46,427.909 323.912,483.907 307.913,483.907 295.46,427.909 	"/>
</g>
<g style="opacity:0.7;">
	<path style="fill:#FFFFFF;" d="M29.452,396.066h-1.453c-13.202,0-23.999-10.797-23.999-24v15.844
		c0,13.516,10.484,23.999,23.999,23.999c1.734,0,10.359,0,24,0C41.374,411.909,32.718,405.393,29.452,396.066z"/>
</g>
<g style="opacity:0.1;">
	<path d="M482.533,396.066h1.453c13.202,0,23.998-10.797,23.998-24v15.844c0,13.516-10.483,23.999-23.998,23.999
		c-1.734,0-10.359,0-24,0C470.611,411.909,479.267,405.393,482.533,396.066z"/>
</g>
<g>
	<path style="fill:#E6E9ED;" d="M507.984,339.912v32.154c0,13.203-10.796,24-23.998,24H255.992V379.91c6.641,0,12-5.359,12-12
		c0-6.64-5.359-11.999-12-11.999v-15.999H507.984z"/>
	<path style="fill:#E6E9ED;" d="M255.992,379.91v16.156H27.999c-13.202,0-23.999-10.797-23.999-24v-0.156v-31.998h251.992v15.999
		c-6.64,0-11.999,5.359-11.999,11.999C243.993,374.551,249.352,379.91,255.992,379.91z"/>
</g>
<path style="fill:#FFFFFF;" d="M27.999,372.066v-0.156v-31.998H4v31.998v0.156c0,13.203,10.797,24,23.999,24h24
	C38.796,396.066,27.999,385.269,27.999,372.066z"/>
<g style="opacity:0.2;">
	<path d="M483.986,372.066v-0.156v-31.998h23.998v31.998v0.156c0,13.203-10.796,24-23.998,24h-24
		C473.189,396.066,483.986,385.269,483.986,372.066z"/>
</g>
<path style="fill:#656D78;" d="M507.984,52.076v287.836H255.992H4V52.076c0-13.194,10.797-23.999,23.999-23.999h455.987
	C497.188,28.077,507.984,38.882,507.984,52.076z M483.986,315.912V67.92v-16h-16h-16h-23.999h-15.999h-16h-16h-15.999H187.994
	h-31.999h-31.999H91.997H59.998H27.999v16v247.992H483.986z"/>
<g style="opacity:0.2;">
	<path style="fill:#FFFFFF;" d="M27.999,67.92V52.076V51.92h0.016c0.094-13.125,10.844-23.843,23.984-23.843h-24
		C14.797,28.077,4,38.882,4,52.076v287.836h23.999v-24V67.92z"/>
</g>
<g style="opacity:0.2;">
	<path d="M483.986,67.92V52.076V51.92h-0.016c-0.094-13.125-10.844-23.843-23.984-23.843h24c13.202,0,23.998,10.805,23.998,23.999
		v287.836h-23.998v-24V67.92z"/>
</g>
<g style="opacity:0.2;">
	<path d="M311.468,427.909l-3.555-16c-34.077,0-69.764,0-103.841,0l-3.555,16H311.468z"/>
</g>
<g>
	<path style="fill:#3A3847;" d="M420.229,95.95c-2.21,0-4.038-1.789-4.038-4s1.75-4,3.952-4h0.086c2.203,0,4,1.789,4,4
		S422.432,95.95,420.229,95.95z"/>
	<path style="fill:#3A3847;" d="M460.228,95.95c-2.211,0-4.039-1.789-4.039-4s1.75-4,3.953-4h0.086c2.203,0,4,1.789,4,4
		S462.431,95.95,460.228,95.95z"/>
	<path style="fill:#3A3847;" d="M444.228,95.95c-2.21,0-4.038-1.789-4.038-4s1.75-4,3.952-4h0.086c2.203,0,4,1.789,4,4
		S446.431,95.95,444.228,95.95z"/>
</g>
<path style="fill:#ED5565;" d="M395.988,259.914c4.398,0,8,3.594,8,8c0,4.477-3.602,8-8,8H347.99c-4.398,0-8-3.523-8-8
	c0-4.406,3.602-8,8-8H395.988z"/>
<g style="opacity:0.3;">
	<path style="fill:#FFFFFF;" d="M347.99,267.914c0-4.406,3.602-8,8-8h-8c-4.398,0-8,3.594-8,8c0,4.477,3.602,8,8,8h8
		C351.592,275.914,347.99,272.39,347.99,267.914z"/>
</g>
<g style="opacity:0.2;">
	<path d="M395.988,267.914c0,4.406-3.602,8-8,8h8c4.398,0,8-3.594,8-8c0-4.477-3.602-8-8-8h-8
		C392.387,259.914,395.988,263.437,395.988,267.914z"/>
</g>
<g style="opacity:0.2;">
	<polygon points="283.992,85.489 227.993,85.489 227.993,93.458 255.992,99.919 282.554,93.755 283.992,93.427 	"/>
</g>
<polygon style="fill:#656D78;" points="307.991,79.919 282.554,85.755 255.992,91.919 203.994,79.919 255.992,67.92 "/>
<g style="opacity:0.2;">
	<polygon style="fill:#FFFFFF;" points="227.993,79.919 267.992,70.685 255.992,67.92 203.994,79.919 255.992,91.919 
		267.961,89.145 	"/>
</g>
<g style="opacity:0.2;">
	<polygon points="283.992,79.919 255.992,73.459 267.992,70.685 307.991,79.919 267.961,89.153 255.992,86.388 	"/>
</g>
<path style="fill:#E6E9ED;" d="M95.997,155.917c11.039,0,20,8.953,20,20c0,11.117-8.961,20-20,20c-11.038,0-19.999-8.883-19.999-20
	C75.998,164.87,84.959,155.917,95.997,155.917z"/>
<path style="fill:#FFFFFF;" d="M83.998,175.916c0-9.671,6.875-17.742,15.999-19.593c-1.297-0.266-2.633-0.406-4-0.406
	c-11.038,0-19.999,8.953-19.999,20c0,11.117,8.961,20,19.999,20c1.367,0,2.703-0.141,4-0.398
	C90.873,193.674,83.998,185.65,83.998,175.916z"/>
<g style="opacity:0.2;">
	<path d="M107.997,175.916c0,9.671-6.875,17.742-16,19.593c1.297,0.266,2.633,0.406,4,0.406c11.039,0,20-8.953,20-20
		c0-11.117-8.961-20-20-20c-1.367,0-2.703,0.141-4,0.398C101.122,158.159,107.997,166.182,107.997,175.916z"/>
</g>
<path style="fill:#5D9CEC;" d="M199.994,231.595c0,3.359,11.922,9.273,18.078,11.593c6.64,2.484,9.921,4.96,9.921,11.523
	c0,6.641,0,13.203,0,13.203v8h-95.997v-8c0,0,0-6.562,0-13.203c0-6.562,3.281-9.039,9.922-11.523
	c6.156-2.32,18.077-8.234,18.077-11.593v-8.484c6,7.68,14,12.805,20,12.805s13.999-5.125,19.999-12.805L199.994,231.595
	L199.994,231.595z"/>
<g style="opacity:0.3;">
	<path style="fill:#FFFFFF;" d="M159.995,231.595c0,3.359-11.921,9.273-18.077,11.593c-6.641,2.484-9.922,4.96-9.922,11.523
		c0,6.641,0,13.203,0,13.203v8h8c0,0,0-6.562,0-13.203c0-6.562,3.281-9.039,9.922-11.523c6.155-2.32,18.077-8.234,18.077-11.593
		v-7.25c-2.047-2.102-5.211-5.672-8-9.234V231.595z"/>
	<path style="fill:#FFFFFF;" d="M167.995,231.11v1.234C170.354,234.774,171.206,235.227,167.995,231.11z"/>
</g>
<g style="opacity:0.2;">
	<path d="M199.994,231.595c0,3.359,11.922,9.273,18.078,11.593c6.64,2.484,9.921,4.96,9.921,11.523c0,6.641,0,13.203,0,13.203v8h-8
		c0,0,0-6.562,0-13.203c0-6.562-3.28-9.039-9.921-11.523c-6.156-2.32-18.078-8.234-18.078-11.593v-7.25
		c2.047-2.102,5.211-5.672,8-9.234V231.595z"/>
	<path d="M191.994,231.11v1.234C189.635,234.774,188.783,235.227,191.994,231.11z"/>
</g>
<path style="fill:#EAC6BB;" d="M199.994,223.11c-6,7.68-13.999,12.805-19.999,12.805s-14-5.125-20-12.805
	c-4.64-6.078-7.999-13.679-7.999-21.515c0-17.844,12.562-29.679,27.999-29.679s27.999,11.835,27.999,29.679
	C207.994,209.431,204.635,217.032,199.994,223.11z"/>
<g style="opacity:0.5;">
	<path style="fill:#FFFFFF;" d="M167.995,223.11c-4.641-6.078-8-13.679-8-21.515c0-16.258,10.469-27.421,24-29.296
		c-1.32-0.18-2.633-0.382-4-0.382c-15.438,0-27.999,11.835-27.999,29.679c0,7.835,3.359,15.437,7.999,21.515
		c6,7.68,14,12.805,20,12.805c1.25,0,2.609-0.273,4-0.695C178.729,233.61,172.745,229.188,167.995,223.11z"/>
</g>
<g style="opacity:0.2;">
	<path d="M191.994,223.11c4.641-6.078,8-13.679,8-21.515c0-16.258-10.469-27.421-23.999-29.296c1.32-0.18,2.633-0.382,4-0.382
		c15.437,0,27.999,11.835,27.999,29.679c0,7.835-3.359,15.437-8,21.515c-6,7.68-13.999,12.805-19.999,12.805
		c-1.25,0-2.609-0.273-4-0.695C181.261,233.61,187.245,229.188,191.994,223.11z"/>
</g>
<rect x="52.002" y="275.912" style="fill:#656D78;" width="255.91" height="15.999"/>
<rect x="52.002" y="275.912" style="fill:#AAB2BD;" width="127.96" height="15.999"/>
<polygon style="fill:#A0D468;" points="307.913,252.406 252.992,131.918 307.991,131.918 "/>
<g style="opacity:0.5;">
	<rect x="52.002" y="131.922" style="fill:#FFFFFF;" width="7.999" height="160"/>
</g>
<g style="opacity:0.2;">
	<rect x="299.992" y="131.922" width="8" height="160"/>
</g>
<g style="opacity:0.2;">
	<polygon style="fill:#FFFFFF;" points="235.993,95.302 227.993,93.458 227.993,107.95 235.993,107.95 	"/>
</g>
<g style="opacity:0.2;">
	<polygon points="275.992,95.302 283.992,93.458 283.992,107.95 275.992,107.95 	"/>
</g>
<g>
	<path style="fill:#3A3847;" d="M507.984,343.911H4c-2.211,0-4-1.789-4-3.999c0-2.211,1.789-4,4-4h503.984c2.211,0,4,1.789,4,4
		C511.984,342.122,510.195,343.911,507.984,343.911z"/>
	<path style="fill:#3A3847;" d="M255.992,383.91c-8.819,0-15.999-7.18-15.999-16c0-8.819,7.18-15.999,15.999-15.999
		c8.82,0,16,7.18,16,15.999C271.992,376.73,264.812,383.91,255.992,383.91z M255.992,359.911c-4.413,0-7.999,3.586-7.999,7.999
		c0,4.414,3.586,8,7.999,8c4.414,0,8-3.586,8-8C263.992,363.497,260.406,359.911,255.992,359.911z"/>
	<path style="fill:#3A3847;" d="M188.072,487.907c-0.28,0-0.577-0.031-0.866-0.094c-2.156-0.484-3.516-2.617-3.039-4.773
		l15.999-71.998c0.477-2.148,2.594-3.5,4.773-3.039c2.156,0.484,3.516,2.617,3.039,4.773l-16,71.998
		C191.564,486.641,189.908,487.907,188.072,487.907z"/>
	<path style="fill:#3A3847;" d="M323.912,487.907c-1.836,0-3.492-1.266-3.906-3.133l-15.999-71.998
		c-0.477-2.156,0.883-4.289,3.039-4.773c2.188-0.461,4.297,0.891,4.773,3.039l15.999,71.998c0.477,2.156-0.883,4.289-3.039,4.773
		C324.49,487.876,324.193,487.907,323.912,487.907z"/>
	<path style="fill:#3A3847;" d="M335.99,487.907H175.995c-2.211,0-4-1.789-4-4s1.789-4,4-4H335.99c2.211,0,4,1.789,4,4
		S338.201,487.907,335.99,487.907z"/>
	<path style="fill:#3A3847;" d="M483.986,320.068H27.999c-2.21,0-3.999-1.789-3.999-4V52.076c0-2.21,1.789-4,3.999-4h455.987
		c2.21,0,3.999,1.789,3.999,4v263.992C487.985,318.279,486.196,320.068,483.986,320.068z M31.999,312.068h447.987V56.076H31.999
		V312.068z"/>
	<path style="fill:#3A3847;" d="M483.986,400.066H27.999c-15.437,0-27.999-12.562-27.999-28c0-0.023,0-0.055,0-0.078
		s0-0.055,0-0.078V52.076c0-15.437,12.562-27.999,27.999-27.999h455.987c15.437,0,27.998,12.562,27.998,27.999v319.99
		C511.984,387.504,499.423,400.066,483.986,400.066z M8,371.988c0,0.023,0,0.055,0,0.078c0,11.031,8.969,20,19.999,20h455.987
		c11.03,0,19.999-8.969,19.999-20V52.076c0-11.03-8.969-19.999-19.999-19.999H27.999C16.969,32.077,8,41.046,8,52.076V371.91
		C8,371.933,8,371.965,8,371.988z"/>
	<path style="fill:#3A3847;" d="M483.986,415.909H27.999C12.297,415.909,0,403.613,0,387.91v-15.844c0-2.211,1.789-4.078,4-4.078
		s4,1.711,4,3.922v16c0,11.398,8.602,19.999,19.999,19.999h455.987c11.397,0,19.999-8.601,19.999-19.999v-15.844
		c0-2.211,1.789-4,3.999-4c2.211,0,4,1.789,4,4v15.844C511.984,403.613,499.688,415.909,483.986,415.909z"/>
	<path style="fill:#3A3847;" d="M227.993,111.918c-2.211,0-4-1.789-4-4v-16c0-2.211,1.789-4,4-4s4,1.789,4,4v16
		C231.993,110.129,230.204,111.918,227.993,111.918z"/>
	<path style="fill:#3A3847;" d="M283.992,111.918h-55.999c-2.211,0-4-1.789-4-4s1.789-4,4-4h55.999c2.211,0,4,1.789,4,4
		S286.203,111.918,283.992,111.918z"/>
	<path style="fill:#3A3847;" d="M283.992,111.918c-2.211,0-4-1.789-4-4v-16c0-2.211,1.789-4,4-4s4,1.789,4,4v16
		C287.992,110.129,286.203,111.918,283.992,111.918z"/>
	<path style="fill:#3A3847;" d="M255.992,95.919c-0.305,0-0.602-0.031-0.898-0.102l-51.998-12c-1.812-0.422-3.102-2.039-3.102-3.898
		s1.289-3.477,3.102-3.898l51.998-12c0.594-0.141,1.203-0.141,1.797,0l51.999,12c1.82,0.422,3.102,2.039,3.102,3.898
		c0,1.867-1.289,3.484-3.109,3.898l-51.983,12C256.601,95.888,256.297,95.919,255.992,95.919z M221.782,79.919l34.21,7.89
		l34.164-7.898l-34.164-7.89L221.782,79.919z"/>
	<path style="fill:#3A3847;" d="M75.998,95.919H51.999c-2.211,0-4-1.789-4-4s1.789-4,4-4h23.999c2.211,0,4,1.789,4,4
		S78.209,95.919,75.998,95.919z"/>
	<path style="fill:#3A3847;" d="M403.988,95.919H339.99c-2.211,0-4-1.789-4-4s1.789-4,4-4h63.998c2.211,0,4,1.789,4,4
		S406.199,95.919,403.988,95.919z"/>
	<path style="fill:#3A3847;" d="M123.996,95.919H99.997c-2.211,0-4-1.789-4-4s1.789-4,4-4h23.999c2.211,0,4,1.789,4,4
		S126.207,95.919,123.996,95.919z"/>
	<path style="fill:#3A3847;" d="M171.995,95.919h-23.999c-2.211,0-4-1.789-4-4s1.789-4,4-4h23.999c2.211,0,4,1.789,4,4
		S174.206,95.919,171.995,95.919z"/>
	<path style="fill:#3A3847;" d="M51.999,295.913c-2.211,0-4-1.789-4-4V131.918c0-2.211,1.789-4,4-4s4,1.789,4,4v159.995
		C55.999,294.124,54.21,295.913,51.999,295.913z"/>
	<path style="fill:#3A3847;" d="M307.991,295.913c-2.211,0-4-1.789-4-4V131.918c0-2.211,1.789-4,4-4s4,1.789,4,4v159.995
		C311.991,294.124,310.202,295.913,307.991,295.913z"/>
	<path style="fill:#3A3847;" d="M307.991,135.918H51.999c-2.211,0-4-1.789-4-4s1.789-4,4-4h255.992c2.211,0,4,1.789,4,4
		S310.202,135.918,307.991,135.918z"/>
	<path style="fill:#3A3847;" d="M307.991,295.913H51.999c-2.211,0-4-1.789-4-4s1.789-4,4-4h255.992c2.211,0,4,1.789,4,4
		S310.202,295.913,307.991,295.913z"/>
	<path style="fill:#3A3847;" d="M299.991,279.913H59.998c-2.21,0-3.999-1.789-3.999-3.999c0-2.211,1.789-4,3.999-4h239.993
		c2.211,0,4,1.789,4,4C303.991,278.124,302.202,279.913,299.991,279.913z"/>
	<path style="fill:#3A3847;" d="M131.996,271.914c-2.211,0-4-1.789-4-4v-13.203c0-9.766,6.461-13,12.523-15.273
		c6.961-2.617,14.125-6.789,15.546-8.585c0.344-1.852,1.977-3.258,3.93-3.258c2.211,0,4,1.789,4,4c0,7-15.819,13.507-20.663,15.335
		c-6.328,2.367-7.336,3.938-7.336,7.781v13.203C135.996,270.125,134.207,271.914,131.996,271.914z"/>
	<path style="fill:#3A3847;" d="M227.993,271.914c-2.211,0-4-1.789-4-4v-13.203c0-3.844-1.008-5.414-7.319-7.773
		c-4.859-1.836-20.68-8.343-20.68-15.343c0-2.211,1.789-4,4-4c1.953,0,3.586,1.406,3.93,3.258c1.422,1.797,8.594,5.968,15.562,8.593
		c6.046,2.266,12.507,5.5,12.507,15.265v13.203C231.993,270.125,230.204,271.914,227.993,271.914z"/>
	<path style="fill:#3A3847;" d="M179.995,239.914c-7.258,0-16.344-5.632-23.148-14.343c-5.718-7.484-8.851-15.984-8.851-23.976
		c0-19.203,13.757-33.679,31.999-33.679c18.241,0,31.999,14.476,31.999,33.679c0,7.992-3.133,16.491-8.82,23.944
		C196.338,234.282,187.253,239.914,179.995,239.914z M179.995,175.916c-13.906,0-24,10.796-24,25.679
		c0,6.242,2.547,13.022,7.18,19.085c6.023,7.711,12.945,11.234,16.82,11.234s10.796-3.523,16.851-11.266
		c4.602-6.031,7.148-12.812,7.148-19.054C203.994,186.713,193.9,175.916,179.995,175.916z"/>
	<path style="fill:#3A3847;" d="M199.994,235.595c-2.211,0-4-1.789-4-4v-8.484c0-2.211,1.789-4.039,4-4.039s4,1.75,4,3.961v8.562
		C203.994,233.805,202.205,235.595,199.994,235.595z"/>
	<path style="fill:#3A3847;" d="M159.995,235.595c-2.211,0-4-1.789-4-4v-8.484c0-2.211,1.789-4.039,4-4.039s4,1.75,4,3.961v8.562
		C163.995,233.805,162.206,235.595,159.995,235.595z"/>
	<path style="fill:#3A3847;" d="M95.997,199.916c-13.233,0-23.999-10.766-23.999-24s10.766-24,23.999-24c13.234,0,24,10.766,24,24
		S109.231,199.916,95.997,199.916z M95.997,159.917c-8.819,0-15.999,7.18-15.999,16s7.18,16,15.999,16c8.82,0,16-7.18,16-16
		S104.817,159.917,95.997,159.917z"/>
	<path style="fill:#3A3847;" d="M95.997,179.916c-2.211,0-4-1.789-4-4v-12c0-2.211,1.789-4,4-4s4,1.789,4,4v12
		C99.997,178.127,98.208,179.916,95.997,179.916z"/>
	<path style="fill:#3A3847;" d="M102.153,186.072c-1.023,0-2.047-0.391-2.828-1.172l-6.156-6.156c-1.562-1.562-1.562-4.094,0-5.656
		c1.562-1.562,4.094-1.562,5.656,0l6.156,6.156c1.562,1.562,1.562,4.093,0,5.656C104.2,185.681,103.177,186.072,102.153,186.072z"/>
	<path style="fill:#3A3847;" d="M307.913,256.406c-1.516,0-2.969-0.867-3.641-2.344l-54.92-120.488
		c-0.914-2.008-0.031-4.383,1.984-5.297c1.991-0.906,4.382-0.031,5.296,1.984l54.921,120.488c0.914,2.008,0.031,4.383-1.984,5.297
		C309.038,256.289,308.468,256.406,307.913,256.406z"/>
	<path style="fill:#3A3847;" d="M291.992,186.549c-1.508,0-2.953-0.859-3.633-2.32l-16-34.632c-0.922-2.007-0.047-4.382,1.953-5.312
		c2.016-0.922,4.375-0.055,5.312,1.953l15.999,34.631c0.922,2.008,0.047,4.383-1.953,5.312
		C293.124,186.431,292.554,186.549,291.992,186.549z"/>
	<path style="fill:#3A3847;" d="M459.986,151.917H339.99c-2.211,0-4-1.789-4-4s1.789-4,4-4h119.996c2.211,0,4,1.789,4,4
		S462.197,151.917,459.986,151.917z"/>
	<path style="fill:#3A3847;" d="M459.986,175.916H339.99c-2.211,0-4-1.789-4-4s1.789-4,4-4h119.996c2.211,0,4,1.789,4,4
		S462.197,175.916,459.986,175.916z"/>
	<path style="fill:#3A3847;" d="M459.986,199.916H339.99c-2.211,0-4-1.789-4-4s1.789-4,4-4h119.996c2.211,0,4,1.789,4,4
		S462.197,199.916,459.986,199.916z"/>
	<path style="fill:#3A3847;" d="M403.988,223.915H339.99c-2.211,0-4-1.789-4-4s1.789-4,4-4h63.998c2.211,0,4,1.789,4,4
		S406.199,223.915,403.988,223.915z"/>
	<path style="fill:#3A3847;" d="M347.99,279.913c-6.617,0-12-5.382-12-11.999s5.383-12,12-12c2.211,0,4,1.789,4,4s-1.789,4-4,4
		c-2.203,0-4,1.797-4,4c0,2.242,1.758,4,4,4c2.211,0,4,1.789,4,4C351.99,278.124,350.201,279.913,347.99,279.913z"/>
	<path style="fill:#3A3847;" d="M395.988,279.913c-2.211,0-4-1.789-4-3.999c0-2.211,1.789-4,4-4c2.242,0,4-1.758,4-4
		c0-2.203-1.797-4-4-4c-2.211,0-4-1.789-4-4s1.789-4,4-4c6.617,0,12,5.383,12,12S402.605,279.913,395.988,279.913z"/>
	<path style="fill:#3A3847;" d="M395.988,263.914H347.99c-2.211,0-4-1.789-4-4s1.789-4,4-4h47.998c2.211,0,4,1.789,4,4
		S398.199,263.914,395.988,263.914z"/>
	<path style="fill:#3A3847;" d="M395.988,279.913H347.99c-2.211,0-4-1.789-4-3.999c0-2.211,1.789-4,4-4h47.998c2.211,0,4,1.789,4,4
		C399.988,278.124,398.199,279.913,395.988,279.913z"/>
	<path style="fill:#3A3847;" d="M179.995,295.913c-2.211,0-4-1.789-4-4v-15.999c0-2.211,1.789-4,4-4s4,1.789,4,4v15.999
		C183.995,294.124,182.206,295.913,179.995,295.913z"/>
</g>
<g>
</g>
<g>
</g>
<g>
</g>
<g>
</g>
<g>
</g>
<g>
</g>
<g>
</g>
<g>
</g>
<g>
</g>
<g>
</g>
<g>
</g>
<g>
</g>
<g>
</g>
<g>
</g>
<g>
</g>
</svg>
